<svg width="238" height="16" viewBox="0 0 238 16" fill="none" xmlns="http://www.w3.org/2000/svg">
<path d="M0.86 8.02C0.86 6.66 1.16667 5.44 1.78 4.36C2.39333 3.26667 3.22667 2.41333 4.28 1.8C5.34667 1.18667 6.52667 0.879999 7.82 0.879999C9.34 0.879999 10.6667 1.24667 11.8 1.98C12.9333 2.71333 13.76 3.75333 14.28 5.1H12.1C11.7133 4.26 11.1533 3.61333 10.42 3.16C9.7 2.70667 8.83333 2.48 7.82 2.48C6.84667 2.48 5.97333 2.70667 5.2 3.16C4.42667 3.61333 3.82 4.26 3.38 5.1C2.94 5.92667 2.72 6.9 2.72 8.02C2.72 9.12667 2.94 10.1 3.38 10.94C3.82 11.7667 4.42667 12.4067 5.2 12.86C5.97333 13.3133 6.84667 13.54 7.82 13.54C8.83333 13.54 9.7 13.32 10.42 12.88C11.1533 12.4267 11.7133 11.78 12.1 10.94H14.28C13.76 12.2733 12.9333 13.3067 11.8 14.04C10.6667 14.76 9.34 15.12 7.82 15.12C6.52667 15.12 5.34667 14.82 4.28 14.22C3.22667 13.6067 2.39333 12.76 1.78 11.68C1.16667 10.6 0.86 9.38 0.86 8.02ZM23.3092 15.14C22.0159 15.14 20.8359 14.84 19.7692 14.24C18.7026 13.6267 17.8559 12.78 17.2292 11.7C16.6159 10.6067 16.3092 9.38 16.3092 8.02C16.3092 6.66 16.6159 5.44 17.2292 4.36C17.8559 3.26667 18.7026 2.42 19.7692 1.82C20.8359 1.20667 22.0159 0.899999 23.3092 0.899999C24.6159 0.899999 25.8026 1.20667 26.8692 1.82C27.9359 2.42 28.7759 3.26 29.3892 4.34C30.0026 5.42 30.3092 6.64667 30.3092 8.02C30.3092 9.39333 30.0026 10.62 29.3892 11.7C28.7759 12.78 27.9359 13.6267 26.8692 14.24C25.8026 14.84 24.6159 15.14 23.3092 15.14ZM23.3092 13.56C24.2826 13.56 25.1559 13.3333 25.9292 12.88C26.7159 12.4267 27.3292 11.78 27.7692 10.94C28.2226 10.1 28.4492 9.12667 28.4492 8.02C28.4492 6.9 28.2226 5.92667 27.7692 5.1C27.3292 4.26 26.7226 3.61333 25.9492 3.16C25.1759 2.70667 24.2959 2.48 23.3092 2.48C22.3226 2.48 21.4426 2.70667 20.6692 3.16C19.8959 3.61333 19.2826 4.26 18.8292 5.1C18.3892 5.92667 18.1692 6.9 18.1692 8.02C18.1692 9.12667 18.3892 10.1 18.8292 10.94C19.2826 11.78 19.8959 12.4267 20.6692 12.88C21.4559 13.3333 22.3359 13.56 23.3092 13.56ZM43.6719 15H41.8519L34.5319 3.9V15H32.7119V1.04H34.5319L41.8519 12.12V1.04H43.6719V15ZM55.3544 1.06V2.54H51.5544V15H49.7344V2.54H45.9144V1.06H55.3544ZM64.9347 15L61.6147 9.3H59.4147V15H57.5947V1.06H62.0947C63.148 1.06 64.0347 1.24 64.7547 1.6C65.488 1.96 66.0347 2.44667 66.3947 3.06C66.7547 3.67333 66.9347 4.37333 66.9347 5.16C66.9347 6.12 66.6547 6.96667 66.0947 7.7C65.548 8.43333 64.7214 8.92 63.6147 9.16L67.1147 15H64.9347ZM59.4147 7.84H62.0947C63.0814 7.84 63.8214 7.6 64.3147 7.12C64.808 6.62667 65.0547 5.97333 65.0547 5.16C65.0547 4.33333 64.808 3.69333 64.3147 3.24C63.8347 2.78667 63.0947 2.56 62.0947 2.56H59.4147V7.84ZM76.0827 15.14C74.7893 15.14 73.6093 14.84 72.5427 14.24C71.476 13.6267 70.6293 12.78 70.0027 11.7C69.3893 10.6067 69.0827 9.38 69.0827 8.02C69.0827 6.66 69.3893 5.44 70.0027 4.36C70.6293 3.26667 71.476 2.42 72.5427 1.82C73.6093 1.20667 74.7893 0.899999 76.0827 0.899999C77.3893 0.899999 78.576 1.20667 79.6427 1.82C80.7093 2.42 81.5493 3.26 82.1627 4.34C82.776 5.42 83.0827 6.64667 83.0827 8.02C83.0827 9.39333 82.776 10.62 82.1627 11.7C81.5493 12.78 80.7093 13.6267 79.6427 14.24C78.576 14.84 77.3893 15.14 76.0827 15.14ZM76.0827 13.56C77.056 13.56 77.9293 13.3333 78.7027 12.88C79.4893 12.4267 80.1027 11.78 80.5427 10.94C80.996 10.1 81.2227 9.12667 81.2227 8.02C81.2227 6.9 80.996 5.92667 80.5427 5.1C80.1027 4.26 79.496 3.61333 78.7227 3.16C77.9493 2.70667 77.0693 2.48 76.0827 2.48C75.096 2.48 74.216 2.70667 73.4427 3.16C72.6693 3.61333 72.056 4.26 71.6027 5.1C71.1627 5.92667 70.9427 6.9 70.9427 8.02C70.9427 9.12667 71.1627 10.1 71.6027 10.94C72.056 11.78 72.6693 12.4267 73.4427 12.88C74.2293 13.3333 75.1093 13.56 76.0827 13.56ZM87.3053 13.52H92.1853V15H85.4853V1.06H87.3053V13.52ZM95.9381 2.54V7.2H101.018V8.7H95.9381V13.5H101.618V15H94.1181V1.04H101.618V2.54H95.9381ZM114.664 0.96C116.144 0.96 117.437 1.25333 118.544 1.84C119.651 2.42667 120.504 3.25333 121.104 4.32C121.717 5.37333 122.024 6.59333 122.024 7.98C122.024 9.35333 121.717 10.5733 121.104 11.64C120.504 12.7067 119.644 13.5333 118.524 14.12C117.417 14.7067 116.131 15 114.664 15H109.404V0.96H114.664ZM114.444 12.04C115.737 12.04 116.744 11.6867 117.464 10.98C118.184 10.2733 118.544 9.27333 118.544 7.98C118.544 6.68667 118.184 5.68 117.464 4.96C116.744 4.24 115.737 3.88 114.444 3.88H112.824V12.04H114.444ZM127.355 3.7V6.54H131.935V9.18H127.355V12.26H132.535V15H123.935V0.96H132.535V3.7H127.355ZM144.254 0.96C145.734 0.96 147.027 1.25333 148.134 1.84C149.241 2.42667 150.094 3.25333 150.694 4.32C151.307 5.37333 151.614 6.59333 151.614 7.98C151.614 9.35333 151.307 10.5733 150.694 11.64C150.094 12.7067 149.234 13.5333 148.114 14.12C147.007 14.7067 145.721 15 144.254 15H138.994V0.96H144.254ZM144.034 12.04C145.327 12.04 146.334 11.6867 147.054 10.98C147.774 10.2733 148.134 9.27333 148.134 7.98C148.134 6.68667 147.774 5.68 147.054 4.96C146.334 4.24 145.327 3.88 144.034 3.88H142.414V12.04H144.034ZM156.945 3.7V6.54H161.525V9.18H156.945V12.26H162.125V15H153.525V0.96H162.125V3.7H156.945ZM169.425 15.14C168.399 15.14 167.479 14.9733 166.665 14.64C165.852 14.3067 165.199 13.8133 164.705 13.16C164.225 12.5067 163.972 11.72 163.945 10.8H167.585C167.639 11.32 167.819 11.72 168.125 12C168.432 12.2667 168.832 12.4 169.325 12.4C169.832 12.4 170.232 12.2867 170.525 12.06C170.819 11.82 170.965 11.4933 170.965 11.08C170.965 10.7333 170.845 10.4467 170.605 10.22C170.379 9.99333 170.092 9.80667 169.745 9.66C169.412 9.51333 168.932 9.34667 168.305 9.16C167.399 8.88 166.659 8.6 166.085 8.32C165.512 8.04 165.019 7.62667 164.605 7.08C164.192 6.53333 163.985 5.82 163.985 4.94C163.985 3.63333 164.459 2.61333 165.405 1.88C166.352 1.13333 167.585 0.76 169.105 0.76C170.652 0.76 171.899 1.13333 172.845 1.88C173.792 2.61333 174.299 3.64 174.365 4.96H170.665C170.639 4.50667 170.472 4.15333 170.165 3.9C169.859 3.63333 169.465 3.5 168.985 3.5C168.572 3.5 168.239 3.61333 167.985 3.84C167.732 4.05333 167.605 4.36667 167.605 4.78C167.605 5.23333 167.819 5.58667 168.245 5.84C168.672 6.09333 169.339 6.36667 170.245 6.66C171.152 6.96667 171.885 7.26 172.445 7.54C173.019 7.82 173.512 8.22667 173.925 8.76C174.339 9.29333 174.545 9.98 174.545 10.82C174.545 11.62 174.339 12.3467 173.925 13C173.525 13.6533 172.939 14.1733 172.165 14.56C171.392 14.9467 170.479 15.14 169.425 15.14ZM187.35 5.48C187.35 6.29333 187.163 7.04 186.79 7.72C186.417 8.38667 185.843 8.92667 185.07 9.34C184.297 9.75333 183.337 9.96 182.19 9.96H180.07V15H176.65V0.96H182.19C183.31 0.96 184.257 1.15333 185.03 1.54C185.803 1.92667 186.383 2.46 186.77 3.14C187.157 3.82 187.35 4.6 187.35 5.48ZM181.93 7.24C182.583 7.24 183.07 7.08667 183.39 6.78C183.71 6.47333 183.87 6.04 183.87 5.48C183.87 4.92 183.71 4.48667 183.39 4.18C183.07 3.87333 182.583 3.72 181.93 3.72H180.07V7.24H181.93ZM192.551 3.7V6.54H197.131V9.18H192.551V12.26H197.731V15H189.131V0.96H197.731V3.7H192.551ZM205.031 15.14C204.004 15.14 203.084 14.9733 202.271 14.64C201.458 14.3067 200.804 13.8133 200.311 13.16C199.831 12.5067 199.578 11.72 199.551 10.8H203.191C203.244 11.32 203.424 11.72 203.731 12C204.038 12.2667 204.438 12.4 204.931 12.4C205.438 12.4 205.838 12.2867 206.131 12.06C206.424 11.82 206.571 11.4933 206.571 11.08C206.571 10.7333 206.451 10.4467 206.211 10.22C205.984 9.99333 205.698 9.80667 205.351 9.66C205.018 9.51333 204.538 9.34667 203.911 9.16C203.004 8.88 202.264 8.6 201.691 8.32C201.118 8.04 200.624 7.62667 200.211 7.08C199.798 6.53333 199.591 5.82 199.591 4.94C199.591 3.63333 200.064 2.61333 201.011 1.88C201.958 1.13333 203.191 0.76 204.711 0.76C206.258 0.76 207.504 1.13333 208.451 1.88C209.398 2.61333 209.904 3.64 209.971 4.96H206.271C206.244 4.50667 206.078 4.15333 205.771 3.9C205.464 3.63333 205.071 3.5 204.591 3.5C204.178 3.5 203.844 3.61333 203.591 3.84C203.338 4.05333 203.211 4.36667 203.211 4.78C203.211 5.23333 203.424 5.58667 203.851 5.84C204.278 6.09333 204.944 6.36667 205.851 6.66C206.758 6.96667 207.491 7.26 208.051 7.54C208.624 7.82 209.118 8.22667 209.531 8.76C209.944 9.29333 210.151 9.98 210.151 10.82C210.151 11.62 209.944 12.3467 209.531 13C209.131 13.6533 208.544 14.1733 207.771 14.56C206.998 14.9467 206.084 15.14 205.031 15.14ZM220.996 12.52H215.756L214.916 15H211.336L216.416 0.96H220.376L225.456 15H221.836L220.996 12.52ZM220.116 9.88L218.376 4.74L216.656 9.88H220.116ZM232.082 15.14C231.055 15.14 230.135 14.9733 229.322 14.64C228.508 14.3067 227.855 13.8133 227.362 13.16C226.882 12.5067 226.628 11.72 226.602 10.8H230.242C230.295 11.32 230.475 11.72 230.782 12C231.088 12.2667 231.488 12.4 231.982 12.4C232.488 12.4 232.888 12.2867 233.182 12.06C233.475 11.82 233.622 11.4933 233.622 11.08C233.622 10.7333 233.502 10.4467 233.262 10.22C233.035 9.99333 232.748 9.80667 232.402 9.66C232.068 9.51333 231.588 9.34667 230.962 9.16C230.055 8.88 229.315 8.6 228.742 8.32C228.168 8.04 227.675 7.62667 227.262 7.08C226.848 6.53333 226.642 5.82 226.642 4.94C226.642 3.63333 227.115 2.61333 228.062 1.88C229.008 1.13333 230.242 0.76 231.762 0.76C233.308 0.76 234.555 1.13333 235.502 1.88C236.448 2.61333 236.955 3.64 237.022 4.96H233.322C233.295 4.50667 233.128 4.15333 232.822 3.9C232.515 3.63333 232.122 3.5 231.642 3.5C231.228 3.5 230.895 3.61333 230.642 3.84C230.388 4.05333 230.262 4.36667 230.262 4.78C230.262 5.23333 230.475 5.58667 230.902 5.84C231.328 6.09333 231.995 6.36667 232.902 6.66C233.808 6.96667 234.542 7.26 235.102 7.54C235.675 7.82 236.168 8.22667 236.582 8.76C236.995 9.29333 237.202 9.98 237.202 10.82C237.202 11.62 236.995 12.3467 236.582 13C236.182 13.6533 235.595 14.1733 234.822 14.56C234.048 14.9467 233.135 15.14 232.082 15.14Z" fill="white"/>
</svg>
